<svg xmlns="http://www.w3.org/2000/svg" xmlns:xlink="http://www.w3.org/1999/xlink" width="643.039" height="637.428" viewBox="0 0 643.039 637.428"><defs><path id="a" d="M0 0h643.04v637.428H0z"/></defs><clipPath id="b"><use xlink:href="#a" overflow="visible"/></clipPath><path clip-path="url(#b)" fill="#747678" d="M453.403 493.756l-68.445 39.515v7.158l68.445-39.483z"/><path clip-path="url(#b)" fill="#8B9092" d="M381.61 531.35l.015 7.11 3.333 1.968v-7.157z"/><path clip-path="url(#b)" fill="#ADAFB0" d="M450.055 491.825L381.61 531.35l3.348 1.92 68.444-39.514z"/><path clip-path="url(#b)" fill="#747678" d="M440.953 486.504L372.51 526.02v7.156l68.443-39.483z"/><path clip-path="url(#b)" fill="#8B9092" d="M369.16 524.098l.015 7.11 3.335 1.968v-7.157l-3.35-1.922"/><path clip-path="url(#b)" fill="#ADAFB0" d="M437.605 484.573L369.16 524.1v-.002l3.35 1.922 68.443-39.516z"/><path clip-path="url(#b)" fill="#747678" d="M428.62 479.42l-68.445 39.517v7.156l68.445-39.483z"/><path clip-path="url(#b)" fill="#8B9092" d="M356.828 517.015l.014 7.11 3.334 1.968v-7.157z"/><path clip-path="url(#b)" fill="#ADAFB0" d="M425.272 477.49l-68.444 39.525 3.348 1.92 68.444-39.514z"/><g clip-path="url(#b)"><defs><path id="c" d="M0 0h643.04v637.428H0z"/></defs><clipPath id="d"><use xlink:href="#c" overflow="visible"/></clipPath><path clip-path="url(#d)" fill="#A0A7AD" d="M548.92 496.137L171.336 278.105a28 28 0 0 1-14-24.248V14.02c0-10.77 11.656-17.507 20.99-12.13l377.573 217.523a28 28 0 0 1 14.024 24.262v240.338c0 10.777-11.668 17.512-21 12.124M309.583 367.77l.117 36.243a24 24 0 0 1-12 20.863l-31.52 18.193 87.122 50.295 31.61-18.17a24.002 24.002 0 0 0 12.046-20.814v-36.394l-87.375-50.216"/><path clip-path="url(#d)" fill="#A0A7AD" d="M554.242 500.61l8.224-4.22-7.085-9.89zM164.153 2.004l-8.385 4.31 4.185-.037z"/><path clip-path="url(#d)" fill="#CACACC" d="M540.082 500.706l-377.586-218.03a28 28 0 0 1-14-24.25V18.59c0-10.77 11.656-17.508 20.99-12.13L547.058 223.98a28 28 0 0 1 14.023 24.262V488.58c0 10.78-11.668 17.516-21 12.126"/><path clip-path="url(#d)" fill="#E5F4F7" d="M167.165 27.106V256.56l373.71 215.77V242.01z"/><path clip-path="url(#d)" fill="#F37C54" d="M185.913 59.046l-.014 28.736 329.724 190.354.023-28.683z"/><path clip-path="url(#d)" fill="#5CD2D2" d="M186.008 102.252l-.026 86.293 68.335 39.362.076-86.14z"/><path clip-path="url(#d)" fill="#CF3A52" d="M266.724 156.048l-.11 86.033 68.553 39.702.022-86.225z"/><path clip-path="url(#d)" fill="#E3516E" d="M281.7 235.82l-.003.002 6.15 3.552v-.005l-6.148-3.55m-14.976-79.772l-.11 86.033 15.062 8.724.02-14.982-.287-.166-1.635.758-.348-.724.998-.6 6.198-3.61 1.24.717 4.406 2.546.83.48 1.03.596 8.213 4.746 4.126 2.382v.002l.002.002 5.11 5.353a2 2 0 0 0 2.445.353l4.813-2.77 6.29 3.552-11.235 6.514a2.005 2.005 0 0 1-2.265-.18l-5.158-4.193 5.158 4.195a1.996 1.996 0 0 0 2.265.18l11.236-6.515v4.155L313.89 260.1a2 2 0 0 1-2.256-.173l-5.16-4.152v9.39l28.695 16.617.022-86.225-68.466-39.51"/><path clip-path="url(#d)" fill="#4F9CD0" d="M360.038 202.69l-.026 86.294 68.505 39.46.245-86.117z"/><path clip-path="url(#d)" fill="#F2C06B" d="M447.205 253.024l-.01 150.904 68.457 39.523.277-150.79z"/><path clip-path="url(#d)" fill="#8F959B" d="M390.732 414.467v7.154l6.162-3.596z"/><path clip-path="url(#d)" fill="#B5B5B7" d="M390.732 414.397v.07l6.162 3.557.064-.037z"/><path clip-path="url(#d)" fill="#A0A7AD" d="M351.708 379.092c0 3.566-2.892 4.792-6.458 2.737-3.567-2.057-6.46-6.613-6.46-10.18 0-3.567 2.893-4.793 6.46-2.737 3.566 2.055 6.458 6.61 6.458 10.18"/><path clip-path="url(#d)" fill="#F37C54" d="M185.85 59.032l3.205-1.856 329.716 190.48-.062 28.772-3.05 1.774-.016-28.757z"/><path clip-path="url(#d)" fill="#C76746" d="M518.77 247.657l-3.128 1.788.015 28.757 3.05-1.858z"/><path clip-path="url(#d)" fill="#A0A7AD" d="M171.138 29.39v229.463l-3.973-2.295V27.106z"/><path clip-path="url(#d)" fill="#A0A7AD" d="M171.14 254.315L540.876 467.75v4.573l-373.71-215.728z"/><path clip-path="url(#d)" fill="#5CD2D2" d="M185.837 102.138l3.246-1.836 68.438 39.542.042 86.167-3.245 1.897.077-86.142z"/><path clip-path="url(#d)" fill="#4BAEAF" d="M257.52 139.844l-3.126 1.92-.077 86.127 3.246-1.88z"/><path clip-path="url(#d)" fill="#9FE5E5" d="M189.083 100.303l-3.245 1.836 68.555 39.626 3.127-1.92z"/><path clip-path="url(#d)" fill="#20AAE0" d="M266.724 156.048l9.444-5.452 68.408 39.542-.06 86.274-9.35 5.37.023-86.225z"/><path clip-path="url(#d)" fill="#CF3A52" d="M266.724 156.048l9.444-5.452 68.408 39.542-9.387 5.42z"/><path clip-path="url(#d)" fill="#F6678A" d="M276.168 150.595l-9.444 5.452 68.466 39.51 9.386-5.418z"/><path clip-path="url(#d)" fill="#CF3A52" d="M344.577 190.138l-.06 86.274-9.35 5.37.022-86.226z"/><path clip-path="url(#d)" fill="#4F9CD0" d="M360.037 202.69l3.245-1.836 68.44 39.542.04 86.167-3.244 1.88.244-86.117z"/><path clip-path="url(#d)" fill="#4181AD" d="M431.72 240.396l-2.958 1.93-.244 86.117 3.245-1.88z"/><path clip-path="url(#d)" fill="#97C5E4" d="M363.283 200.854l-3.245 1.836 68.724 39.636 2.96-1.93z"/><path clip-path="url(#d)" fill="#F2C06B" d="M447.197 253.02l3.244-1.834 68.44 39.54.024 150.85-3.244 1.88-.07-150.99z"/><path clip-path="url(#d)" fill="#C69F59" d="M518.88 290.727l-3.29 1.74.07 150.987 3.244-1.88z"/><path clip-path="url(#d)" fill="#F8B29B" d="M189.053 57.177l-3.205 1.855 329.795 190.413 3.128-1.788z"/><path clip-path="url(#d)" fill="#F8DAA9" d="M450.442 251.185l-3.245 1.835 68.394 39.446 3.29-1.74z"/><path clip-path="url(#d)" fill="#E5F4F7" d="M185.834 202.742l-.003 7.187 68.454 39.515v-7.184z"/><path clip-path="url(#d)" fill="#909193" d="M185.834 202.742l-.003 7.187 68.454 39.515v-7.184z"/><path clip-path="url(#d)" fill="#E5F4F7" d="M257.606 240.327l-3.322 1.934v7.186l3.256-1.905z"/><path clip-path="url(#d)" fill="#758082" d="M257.606 240.327l-3.322 1.934v7.186l3.256-1.905z"/><path clip-path="url(#d)" fill="#E5F4F7" d="M189.156 200.808l-3.322 1.934 68.45 39.52 3.322-1.935z"/><path clip-path="url(#d)" fill="#ADB5B6" d="M189.156 200.808l-3.322 1.934 68.45 39.52 3.322-1.935z"/><path clip-path="url(#d)" fill="#E5F4F7" d="M185.834 217.117l-.003 7.187 68.454 39.516v-7.184z"/><path clip-path="url(#d)" fill="#909193" d="M185.834 217.117l-.003 7.187 68.454 39.516v-7.184z"/><path clip-path="url(#d)" fill="#E5F4F7" d="M257.606 254.702l-3.322 1.934v7.184l3.256-1.904z"/><path clip-path="url(#d)" fill="#758082" d="M257.606 254.702l-3.322 1.934v7.184l3.256-1.904z"/><path clip-path="url(#d)" fill="#E5F4F7" d="M189.156 215.183l-3.322 1.934 68.45 39.52 3.322-1.935z"/><path clip-path="url(#d)" fill="#ADB5B6" d="M189.156 215.183l-3.322 1.934 68.45 39.52 3.322-1.935z"/><path clip-path="url(#d)" fill="#E5F4F7" d="M185.834 231.48l-.003 7.187 68.454 39.516V271z"/><path clip-path="url(#d)" fill="#909193" d="M185.834 231.48l-.003 7.187 68.454 39.516V271z"/><path clip-path="url(#d)" fill="#E5F4F7" d="M257.606 269.064l-3.322 1.934v7.185l3.256-1.905z"/><path clip-path="url(#d)" fill="#758082" d="M257.606 269.064l-3.322 1.934v7.185l3.256-1.905z"/><path clip-path="url(#d)" fill="#E5F4F7" d="M189.156 229.545l-3.322 1.934 68.45 39.518 3.322-1.934z"/><path clip-path="url(#d)" fill="#ADB5B6" d="M189.156 229.545l-3.322 1.934 68.45 39.518 3.322-1.934z"/><path clip-path="url(#d)" fill="#E5F4F7" d="M185.834 245.85l-.003 7.188 68.454 39.515v-7.183z"/><path clip-path="url(#d)" fill="#909193" d="M185.834 245.85l-.003 7.188 68.454 39.515v-7.183z"/><path clip-path="url(#d)" fill="#E5F4F7" d="M257.606 283.435l-3.322 1.934v7.184l3.256-1.905z"/><path clip-path="url(#d)" fill="#758082" d="M257.606 283.435l-3.322 1.934v7.184l3.256-1.905z"/><path clip-path="url(#d)" fill="#E5F4F7" d="M189.156 243.916l-3.322 1.934 68.45 39.52 3.322-1.935z"/><path clip-path="url(#d)" fill="#ADB5B6" d="M189.156 243.916l-3.322 1.934 68.45 39.52 3.322-1.935z"/><path clip-path="url(#d)" fill="#E5F4F7" d="M306.472 272.398v7.186l15.992 9.232 2.417-1.422 6.25 3.633-.55 2.475 10.813 6.24v-7.183l-34.92-20.162zm-33.53-19.358l-.002 7.187 8.715 5.03.01-7.18-8.722-5.037"/><path clip-path="url(#d)" fill="#909193" d="M306.472 272.398v7.186l15.992 9.232 2.417-1.422 6.25 3.633-.55 2.475 10.813 6.24v-7.183l-34.92-20.162zm-33.53-19.358l-.002 7.187 8.715 5.03.01-7.18-8.722-5.037"/><path clip-path="url(#d)" fill="#E5F4F7" d="M344.715 290.625l-3.322 1.934v7.183l3.255-1.904z"/><path clip-path="url(#d)" fill="#758082" d="M344.715 290.625l-3.322 1.934v7.183l3.255-1.904z"/><path clip-path="url(#d)" fill="#E5F4F7" d="M306.472 268.546v3.852l34.92 20.16 3.322-1.933-38.242-22.08zm-30.207-17.44l-3.322 1.934 8.722 5.036.005-3.85-5.405-3.12"/><path clip-path="url(#d)" fill="#ADB5B6" d="M306.472 268.546v3.852l34.92 20.16 3.322-1.933-38.242-22.08zm-30.207-17.44l-3.322 1.934 8.722 5.036.005-3.85-5.405-3.12"/><path clip-path="url(#d)" fill="#E5F4F7" d="M329.165 299.874l-1.415 6.37 13.643 7.874v-7.184l-12.228-7.06zm-28.857-16.66v6.467l-9.753-5.62-.14.63 32.578 18.806 1.417-6.367-24.102-13.916m-27.365-15.8l-.003 7.188 6.465 3.732 1.416-6.37-7.877-4.55"/><path clip-path="url(#d)" fill="#909193" d="M329.165 299.874l-1.415 6.37 13.643 7.874v-7.184l-12.228-7.06zm-28.857-16.66v6.467l-9.753-5.62-.14.63 32.578 18.806 1.417-6.367-24.102-13.916m-27.365-15.8l-.003 7.188 6.465 3.732 1.416-6.37-7.877-4.55"/><path clip-path="url(#d)" fill="#E5F4F7" d="M344.715 305l-3.322 1.934v7.185l3.255-1.906z"/><path clip-path="url(#d)" fill="#758082" d="M344.715 305l-3.322 1.934v7.185l3.255-1.906z"/><path clip-path="url(#d)" fill="#E5F4F7" d="M329.923 296.46l-.758 3.415 12.228 7.06 3.322-1.935-14.792-8.54zm-29.615-13.95v.704l24.102 13.915.55-2.47-6.25-3.634.892-.525-13.13-7.58v3.142l-.004-.002-6.16-3.55m-24.043-17.03l-3.322 1.935 7.878 4.55.563-2.53.266-.156v-.69l-5.385-3.11"/><path clip-path="url(#d)" fill="#ADB5B6" d="M329.923 296.46l-.758 3.415 12.228 7.06 3.322-1.935-14.792-8.54zm-29.615-13.95v.704l24.102 13.915.55-2.47-6.25-3.634.892-.525-13.13-7.58v3.142l-.004-.002-6.16-3.55m-24.043-17.03l-3.322 1.935 7.878 4.55.563-2.53.266-.156v-.69l-5.385-3.11"/><path clip-path="url(#d)" fill="#E5F4F7" d="M320.287 315.65l-.558.324.43.25.127-.573zm6.05-3.046l-1.414 6.368 16.47 9.508v-7.185l-15.056-8.69m-53.394-30.828l-.003 7.187 3.635 2.098 1.417-6.37-5.05-2.915"/><path clip-path="url(#d)" fill="#909193" d="M320.287 315.65l-.558.324.43.25.127-.573zm6.05-3.046l-1.414 6.368 16.47 9.508v-7.185l-15.056-8.69m-53.394-30.828l-.003 7.187 3.635 2.098 1.417-6.37-5.05-2.915"/><path clip-path="url(#d)" fill="#E5F4F7" d="M344.715 319.362l-3.322 1.934v7.184l3.255-1.904z"/><path clip-path="url(#d)" fill="#758082" d="M344.715 319.362l-3.322 1.934v7.184l3.255-1.904z"/><path clip-path="url(#d)" fill="#E5F4F7" d="M327.095 309.19l-.758 3.414 15.056 8.692 3.322-1.934-17.62-10.172zm-37.334-21.555l-.197.89.015.01.005-.003 32.57 18.74.184-.83-32.576-18.807m-13.495-7.792l-3.322 1.934 5.048 2.915.76-3.414-2.485-1.435"/><path clip-path="url(#d)" fill="#ADB5B6" d="M327.095 309.19l-.758 3.414 15.056 8.692 3.322-1.934-17.62-10.172zm-37.334-21.555l-.197.89.015.01.005-.003 32.57 18.74.184-.83-32.576-18.807m-13.495-7.792l-3.322 1.934 5.048 2.915.76-3.414-2.485-1.435"/><path clip-path="url(#d)" fill="#E5F4F7" d="M323.508 325.342l-1.415 6.368 19.3 11.142v-7.185l-17.885-10.325zm-37.335-21.556l-1.415 6.37 32.568 18.802 1.417-6.367-32.57-18.804m-13.23-7.638l-.003 7.187.804.464 1.416-6.372-2.217-1.28"/><path clip-path="url(#d)" fill="#909193" d="M323.508 325.342l-1.415 6.368 19.3 11.142v-7.185l-17.885-10.325zm-37.335-21.556l-1.415 6.37 32.568 18.802 1.417-6.367-32.57-18.804m-13.23-7.638l-.003 7.187.804.464 1.416-6.372-2.217-1.28"/><path clip-path="url(#d)" fill="#E5F4F7" d="M344.715 333.733l-3.322 1.934v7.185l3.255-1.905z"/><path clip-path="url(#d)" fill="#758082" d="M344.715 333.733l-3.322 1.934v7.185l3.255-1.905z"/><path clip-path="url(#d)" fill="#E5F4F7" d="M324.266 321.927l-.758 3.415 17.885 10.325 3.322-1.934-20.45-11.806zm-37.52-20.722l-.573 2.58 32.57 18.806.76-3.413-2.66-1.535-.81.468-.004-.94.004.94-29.287-16.905m-10.93-6.73l-2.874 1.673 2.218 1.28.657-2.953"/><path clip-path="url(#d)" fill="#ADB5B6" d="M324.266 321.927l-.758 3.415 17.885 10.325 3.322-1.934-20.45-11.806zm-37.52-20.722l-.573 2.58 32.57 18.806.76-3.413-2.66-1.535-.81.468-.004-.94.004.94-29.287-16.905m-10.93-6.73l-2.874 1.673 2.218 1.28.657-2.953"/><path clip-path="url(#d)" fill="#E5F4F7" d="M360.082 303.382l-.003 7.187 68.45 39.515V342.9z"/><path clip-path="url(#d)" fill="#909193" d="M360.082 303.382l-.003 7.187 68.45 39.515V342.9z"/><path clip-path="url(#d)" fill="#E5F4F7" d="M431.854 340.967l-3.322 1.934v7.185l3.256-1.903z"/><path clip-path="url(#d)" fill="#758082" d="M431.854 340.967l-3.322 1.934v7.185l3.256-1.903z"/><path clip-path="url(#d)" fill="#E5F4F7" d="M363.404 301.448l-3.322 1.934 68.45 39.52 3.322-1.935z"/><path clip-path="url(#d)" fill="#ADB5B6" d="M363.404 301.448l-3.322 1.934 68.45 39.52 3.322-1.935z"/><path clip-path="url(#d)" fill="#E5F4F7" d="M360.082 317.757l-.003 7.187 68.45 39.517v-7.184z"/><path clip-path="url(#d)" fill="#909193" d="M360.082 317.757l-.003 7.187 68.45 39.517v-7.184z"/><path clip-path="url(#d)" fill="#E5F4F7" d="M431.854 355.342l-3.322 1.934v7.185l3.256-1.904z"/><path clip-path="url(#d)" fill="#758082" d="M431.854 355.342l-3.322 1.934v7.185l3.256-1.904z"/><path clip-path="url(#d)" fill="#E5F4F7" d="M363.404 315.823l-3.322 1.934 68.45 39.52 3.322-1.935z"/><path clip-path="url(#d)" fill="#ADB5B6" d="M363.404 315.823l-3.322 1.934 68.45 39.52 3.322-1.935z"/><path clip-path="url(#d)" fill="#E5F4F7" d="M360.082 332.12l-.003 7.187 68.45 39.515v-7.183z"/><path clip-path="url(#d)" fill="#909193" d="M360.082 332.12l-.003 7.187 68.45 39.515v-7.183z"/><path clip-path="url(#d)" fill="#E5F4F7" d="M431.854 369.704l-3.322 1.935v7.182l3.256-1.904z"/><path clip-path="url(#d)" fill="#758082" d="M431.854 369.704l-3.322 1.935v7.182l3.256-1.904z"/><path clip-path="url(#d)" fill="#E5F4F7" d="M363.404 330.186l-3.322 1.933 68.45 39.52 3.322-1.936z"/><path clip-path="url(#d)" fill="#ADB5B6" d="M363.404 330.186l-3.322 1.933 68.45 39.52 3.322-1.936z"/><path clip-path="url(#d)" fill="#E5F4F7" d="M360.082 346.49l-.003 7.188 68.45 39.515v-7.183z"/><path clip-path="url(#d)" fill="#909193" d="M360.082 346.49l-.003 7.188 68.45 39.515v-7.183z"/><path clip-path="url(#d)" fill="#E5F4F7" d="M431.854 384.075l-3.322 1.935v7.183l3.256-1.904z"/><path clip-path="url(#d)" fill="#758082" d="M431.854 384.075l-3.322 1.935v7.183l3.256-1.904z"/><path clip-path="url(#d)" fill="#E5F4F7" d="M363.404 344.557l-3.322 1.933 68.45 39.52 3.322-1.935z"/><path clip-path="url(#d)" fill="#ADB5B6" d="M363.404 344.557l-3.322 1.933 68.45 39.52 3.322-1.935z"/><path clip-path="url(#d)" fill="#CACACC" d="M303.358 364.172l.124 38.563a20 20 0 0 1-10 17.386l-27.302 15.76 87.12 50.3 27.395-15.734a20.002 20.002 0 0 0 10.04-17.344V414.39l-87.377-50.218"/><path clip-path="url(#d)" fill="#A0A7AD" d="M266.177 435.88v7.188l6.227-3.594z"/><path transform="rotate(-90.16 303.384 369.63)" clip-path="url(#d)" fill="#E4E4E5" d="M301.82 369.628h3.11v.004h-3.11z"/><path clip-path="url(#d)" fill="#B5B5B7" d="M313.576 370.048l-.846 3.81-2.35 1.37 80.35 46.396v-7.23l-77.154-44.346zm-8.856-5.09l.018 3.906-1.367-.79.01 3.112 4.03 2.326 1.382-6.215-.673-.388-3.382 1.953-.018-3.906"/><path clip-path="url(#d)" fill="#EB4517" d="M151.813 458.11L0 370.53V341.76l151.813 87.584z"/><path clip-path="url(#d)" fill="#F37C54" d="M151.813 458.11L0 370.53V341.76l151.813 87.584z"/><path clip-path="url(#d)" fill="#FFF" d="M3.786 354.055l-1.49-.86v-10.11l1.49.858zM7.523 356.21l-1.488-.858v-10.11l1.488.858zM11.262 358.367l-1.49-.86v-10.11l1.49.86zM15 360.523l-1.49-.858v-10.11l1.49.858zM22.475 364.837l-1.49-.86v-10.11l1.49.86zM26.213 366.993l-1.49-.86v-10.11l1.49.86zM29.95 369.15l-1.488-.86v-10.11l1.49.86zM33.688 371.306l-1.488-.86v-10.11l1.488.86zM41.165 375.62l-1.49-.86v-10.112l1.49.86zM44.902 377.775l-1.488-.86v-10.108l1.488.858zM48.64 379.932l-1.49-.86v-10.11l1.49.86zM52.378 382.088l-1.49-.86v-10.11l1.49.86zM59.854 386.4l-1.49-.858v-10.11l1.49.858zM63.592 388.558l-1.49-.86v-10.11l1.49.858zM67.33 390.714l-1.49-.86v-10.11l1.49.86zM71.068 392.87l-1.49-.858v-10.11l1.49.86zM78.543 397.184l-1.488-.86v-10.11l1.488.86zM82.282 399.34l-1.49-.86v-10.11l1.49.86zM86.02 401.496l-1.49-.858v-10.11l1.49.857zM89.757 403.652l-1.49-.858v-10.11l1.49.858zM97.233 407.966l-1.49-.86v-10.11l1.49.86zM100.97 410.122l-1.488-.86v-10.11l1.49.86zM104.708 412.278l-1.488-.858v-10.11l1.488.858zM108.447 414.435l-1.49-.86v-10.11l1.49.86zM115.922 418.748l-1.488-.86v-10.11l1.488.86zM119.66 420.904l-1.49-.86v-10.108l1.49.858zM123.398 423.06l-1.49-.858v-10.11l1.49.86zM127.136 425.218l-1.49-.86v-10.11l1.49.858zM134.612 429.53l-1.49-.86v-10.108l1.49.857zM138.35 431.687l-1.49-.86v-10.11l1.49.858zM142.088 433.843l-1.49-.86v-10.11l1.49.86zM145.826 436l-1.49-.86v-10.11l1.49.86zM18.737 366.954l-1.49-.86v-14.383l1.49.86zM37.427 377.736l-1.49-.86v-14.383l1.49.86zM56.116 388.52l-1.49-.86v-14.385l1.49.86zM74.806 399.3l-1.49-.86V384.06l1.49.86zM93.495 410.083l-1.49-.86V394.84l1.49.86zM112.185 420.865l-1.49-.86v-14.383l1.49.86zM130.874 431.647l-1.49-.86v-14.383l1.49.86zM149.563 442.43l-1.488-.86v-14.383l1.488.86z"/><path clip-path="url(#d)" fill="#F37C54" d="M158.25 426.028v28.667l-6.437 3.416v-28.767z"/><path clip-path="url(#d)" fill="#C76746" d="M158.25 426.028l-6.437 3.315v28.768l6.437-3.415z"/><path clip-path="url(#d)" fill="#F37C54" d="M0 341.76l6.417-3.733 151.833 88-6.438 3.316z"/><path clip-path="url(#d)" fill="#F8B29B" d="M6.417 338.028L0 341.76l151.813 87.583 6.437-3.315z"/><path clip-path="url(#d)" fill="#C59E78" d="M543.01 546.557c0 1.793-.586 3.098-1.586 3.844l-.724.406-.03.022c-1.435.596-3.418.328-5.615-.945-1.96-1.152-3.768-2.914-5.156-4.905l-.01-.008c-1.698-2.448-2.774-5.24-2.774-7.65 0-1.838.618-3.165 1.663-3.904l.06-.04.336-.19.022-.014c1.45-.748 3.54-.527 5.857.823 1.99 1.16 3.83 2.952 5.22 4.98l.044.07c1.653 2.41 2.69 5.146 2.69 7.512"/><path clip-path="url(#d)" fill="#485654" d="M540.318 539.044l-.51.197-.055.024-4.317 2.502-5.537 3.21-68.123 39.456-54.057 31.342-.008.008-.785.45-10.504-6.308.267-.153 132.087-76.355.06-.038.338-.19.022-.016c1.45-.747 3.54-.526 5.858.823 1.99 1.16 3.83 2.952 5.217 4.98l.046.07"/><path clip-path="url(#d)" fill="#6E8583" d="M531.072 532.746c-.7 0-1.333.145-1.875.425l-.023.016-.335.19-.062.038-132.02 76.318a4.17 4.17 0 0 1 1.693-.337c1.166 0 2.52.4 3.967 1.24 2.044 1.19 3.9 3.05 5.303 5.14l54.057-31.342 68.113-39.463 5.545-3.204 4.318-2.502.053-.023.466-.265c-1.39-2.03-3.227-3.822-5.218-4.98-1.45-.846-2.81-1.25-3.982-1.25"/><path clip-path="url(#d)" fill="#485654" d="M543.01 546.557c0 1.793-.586 3.098-1.586 3.844l-.724.406-.03.022-132.324 76.39-.122.075v-.023l-.496-11.48v-.006l54.05-31.35 68.113-39.464 5.547-3.203 4.37-2.524.467-.268.045.07c1.653 2.41 2.69 5.146 2.69 7.512"/><path clip-path="url(#d)" fill="#485654" d="M388.087 625.64l1.533-3.144.067-.135 5.262-10.76.19-.395h.01c1.206-2.118 4.006-2.467 7.268-.57 2.045 1.19 3.903 3.055 5.308 5.146h.002v.004c1.59 2.372 2.597 5.036 2.597 7.356 0 2.937-1.605 4.56-3.982 4.54v.01l-13.05-.27h-.123l-.315-.01-3.73-.08c-.338-.01-.63-.146-.833-.36l-.135-.18-.102-.18a1.164 1.164 0 0 1 .032-.97"/><path clip-path="url(#d)" fill="#5B6E6C" d="M406.555 627.678c-.046.002-.092.002-.138.002h-.076.044c.056 0 .114 0 .17-.002m1.728-.43l-.06.025c-.326.163-.688.28-1.078.348a3.77 3.77 0 0 0 1.138-.372m1.11-8.368c.054.136.105.273.15.405l.078.19c.248.7.44 1.388.552 2.053.046.247.08.494.102.73v.046c.034.282.045.564.045.834 0 1.21-.272 2.2-.757 2.943.488-.74.762-1.73.762-2.94 0-1.346-.34-2.807-.934-4.26m-1.663-3.096v.008l.09.136c.158.236.306.473.44.71l.056.078c.17.293.338.597.485.89.157.306.304.61.438.913l.01.015a17.638 17.638 0 0 0-1.52-2.75m-9.274-6.39c-1.464 0-2.63.632-3.304 1.812h-.008l-.19.395-5.263 10.76-.067.137-1.533 3.142a1.2 1.2 0 0 0-.122.524c0 .152.03.303.09.444l.1.182 2.187-1.24 2.84-1.588.35-.203 3.797-2.13 9.6-5.396.788-.45h.01c-1.403-2.092-3.262-3.955-5.308-5.145-1.447-.844-2.802-1.244-3.968-1.244"/><path clip-path="url(#d)" fill="#485654" d="M388.155 626.79l.135.18c.19.226.496.36.834.372l.958.022 3.042.067h.045v-.01h.123l13.048.27v-.01c.7.01 1.342-.136 1.883-.407l.124-.056c1.23-.676 1.973-2.073 1.973-4.08 0-.27-.012-.55-.046-.833v-.045a8.62 8.62 0 0 0-.102-.733 12.292 12.292 0 0 0-.552-2.05l-.078-.193c-.08-.235-.18-.483-.282-.72l-.022-.046a18.05 18.05 0 0 0-.44-.912 17.73 17.73 0 0 0-.484-.89l-.056-.08a11.586 11.586 0 0 0-.44-.71l-.09-.134v-.013h-.01l-.79.45-9.6 5.397-3.797 2.13-.35.203-2.84 1.59-2.185 1.24"/><path clip-path="url(#d)" fill="#3B4846" d="M407.728 615.78h-.012l-.79.452-9.6 5.396-3.796 2.13-.35.202-2.84 1.59-2.186 1.24.135.18c.19.225.495.36.833.37l.958.023 3.043.067h.045v-.01h.124l13.048.27v-.012h.075c.67 0 1.285-.145 1.807-.405l.124-.057c1.23-.676 1.973-2.073 1.973-4.08 0-.27-.014-.55-.046-.833v-.045a8.912 8.912 0 0 0-.103-.73 12.374 12.374 0 0 0-.55-2.053l-.08-.19a10.12 10.12 0 0 0-.28-.723l-.023-.045a17.25 17.25 0 0 0-.44-.913 16.91 16.91 0 0 0-.483-.89l-.057-.08a13.154 13.154 0 0 0-.44-.71l-.09-.134v-.01"/><path clip-path="url(#d)" fill="#262729" d="M388.054 626.61l.09.18h.01l.137.18c.192.226.496.36.834.372l.958.022 3.042.068h.047v-.013l.012-3.46v-.067l-3.562-1.397-1.53 3.145a1.16 1.16 0 0 0-.036.97"/><path clip-path="url(#d)" fill="#262729" d="M389.488 623.205c0 1.342 1.088 3.06 2.43 3.842 1.34.78 2.43.325 2.43-1.018 0-1.342-1.09-3.062-2.43-3.842-1.342-.78-2.43-.325-2.43 1.017"/><path clip-path="url(#d)" fill="#7F56C5" d="M167.123 522.482v-21.555l18.668 10.778v21.556z"/><g clip-path="url(#d)"><defs><path id="e" d="M167.123 500.927h18.668v32.334h-18.667z"/></defs><clipPath id="f"><use xlink:href="#e" overflow="visible"/></clipPath><path clip-path="url(#f)" fill="#C2A9E3" d="M167.123 500.927v21.555l18.668 10.78v-21.558z"/></g><path clip-path="url(#d)" fill="#7F56C5" d="M167.123 500.927l18.668-10.78 18.67 10.78-18.67 10.777z"/><g opacity=".8" clip-path="url(#d)"><defs><path id="g" d="M167.123 490.148h37.337v21.557h-37.337z"/></defs><clipPath id="h"><use xlink:href="#g" overflow="visible"/></clipPath><path clip-path="url(#h)" fill="#E8DBF3" d="M185.792 490.148l-18.668 10.78 18.668 10.776 18.667-10.777z"/></g><path clip-path="url(#d)" fill="#00A19B" d="M185.792 511.705l18.667-10.778v21.555l-18.668 10.78z"/><path clip-path="url(#d)" fill="#7F56C5" d="M185.792 511.705l18.667-10.778v21.555l-18.668 10.78z"/><path clip-path="url(#d)" fill="#7C98AB" d="M105.04 314.066V292.51l18.668 10.778v21.556z"/><path clip-path="url(#d)" fill="#A7BAC9" d="M105.04 292.51l18.668-10.778 18.668 10.778-18.668 10.778z"/><path clip-path="url(#d)" fill="#00A19B" d="M123.708 303.288l18.668-10.778v21.556l-18.668 10.778z"/><path clip-path="url(#d)" fill="#5D7E95" d="M123.708 303.288l18.668-10.778v21.556l-18.668 10.778z"/><path clip-path="url(#d)" fill="#CF3A52" d="M92.54 357.316V335.76l18.668 10.778v21.556z"/><path clip-path="url(#d)" fill="#E3516E" d="M92.54 335.76v21.555l18.668 10.78v-21.557z"/><path clip-path="url(#d)" fill="#CF3A52" d="M92.54 335.76l18.668-10.78 18.668 10.78-18.668 10.778z"/><path clip-path="url(#d)" fill="#F6678A" d="M111.208 324.98l-18.67 10.78 18.67 10.777 18.668-10.777z"/><path clip-path="url(#d)" fill="#CF3A52" d="M111.208 346.538l18.668-10.778v21.556l-18.668 10.778z"/><path clip-path="url(#d)" fill="#5CD2D2" d="M61.513 238.546l-49.68 28.798.022 57.497 49.658-28.784z"/><path clip-path="url(#d)" fill="#21ADAD" d="M61.513 238.546l-49.68 28.798.022 57.497 49.658-28.784z"/><path clip-path="url(#d)" fill="#FFF" d="M51.376 283.792c0-3.285-2.663-4.415-5.948-2.524-3.285 1.89-5.948 6.087-5.948 9.372s2.663 4.415 5.948 2.524c3.285-1.89 5.948-6.087 5.948-9.372M51.376 260.574c0-3.285-2.663-4.415-5.948-2.524s-5.948 6.087-5.948 9.372 2.663 4.415 5.948 2.524 5.948-6.087 5.948-9.372M32.158 283.246c0-3.285-2.663-4.415-5.948-2.524-3.285 1.89-5.948 6.087-5.948 9.372s2.663 4.415 5.948 2.524c3.285-1.89 5.948-6.087 5.948-9.372"/><path clip-path="url(#d)" fill="#FFF" d="M27.437 284.585l-1.875 4.186 18.64.53 1.876-4.185z"/><path clip-path="url(#d)" fill="#FFF" d="M44.203 263.325l-18.64 21.99 1.874 2.027 18.64-21.99zM92.516 579.897l49.845-28.706 49.72 28.707-49.775 28.733z"/><path clip-path="url(#d)" fill="#E6E7E8" d="M92.516 579.897v7.186l49.817 28.76 49.748-28.76v-7.186l-49.775 28.733z"/><path clip-path="url(#d)" fill="#D3D1D3" d="M142.305 608.63l.028 7.214 49.748-28.762v-7.185z"/><path clip-path="url(#d)" fill="#5CD2D2" d="M11.856 324.842l-6.398-3.747v-57.25l6.375 3.5z"/><path clip-path="url(#d)" fill="#8B9092" d="M369.16 524.098l.015 7.11-.014-7.11z"/><g clip-path="url(#d)"><defs><path id="i" d="M369.16 484.574h71.794v48.602H369.16z"/></defs><clipPath id="j"><use xlink:href="#i" overflow="visible"/></clipPath><path clip-path="url(#j)" fill="#A4DAE7" d="M437.605 484.573l-68.444 39.525.016 7.108 3.333 1.97 68.443-39.482v-7.19z"/><path clip-path="url(#j)" fill="#D3ECF3" d="M369.16 524.098l.015 7.11 3.335 1.968v-7.157l-3.35-1.922"/><path clip-path="url(#j)" fill="#D3ECF3" d="M437.605 484.573L369.16 524.1v-.002l3.35 1.922 68.443-39.516z"/></g><g clip-path="url(#d)"><defs><path id="k" d="M356.828 477.49h71.792v48.603h-71.792z"/></defs><clipPath id="l"><use xlink:href="#k" overflow="visible"/></clipPath><path clip-path="url(#l)" fill="#A4DAE7" d="M425.272 477.49l-68.444 39.525.014 7.11 3.334 1.968 68.444-39.482v-7.19z"/><path clip-path="url(#l)" fill="#D3ECF3" d="M356.828 517.015l.014 7.11 3.334 1.968v-7.157zM425.272 477.49l-68.444 39.525 3.348 1.92 68.444-39.514z"/></g><path clip-path="url(#d)" fill="#747678" d="M453.403 493.756v7.19l-68.445 39.482 68.445-39.482z"/><g clip-path="url(#d)"><defs><path id="m" d="M381.61 491.826h71.793v48.602H381.61z"/></defs><clipPath id="n"><use xlink:href="#m" overflow="visible"/></clipPath><path clip-path="url(#n)" fill="#A4DAE7" d="M450.055 491.825L381.61 531.35l.015 7.108 3.333 1.97 68.444-39.482v-7.19z"/><path clip-path="url(#n)" fill="#D3ECF3" d="M381.61 531.35l.015 7.11 3.333 1.968v-7.157zM450.055 491.825L381.61 531.35l3.348 1.92 68.444-39.514z"/></g><path clip-path="url(#d)" fill="#C8858F" d="M543.044 546.555c0 1.77-.57 3.05-1.54 3.8l-.02.02-.75.43-.03.02-8.33 4.812c.99-.75 1.57-2.04 1.57-3.82 0-2.36-1.04-5.1-2.7-7.51l-.04-.07c-1.39-2.03-3.23-3.82-5.22-4.98-2.31-1.35-4.39-1.57-5.84-.83l9.35-5.36c1.43-.608 3.41-.34 5.59.932 2 1.158 3.83 2.948 5.22 4.978l.05.07c1.65 2.407 2.69 5.146 2.69 7.507"/><path clip-path="url(#d)" fill="#A7BAC9" d="M532.354 555.66l.022-.023-.49.284zM520.104 538.444l-.337.19-.06.04.44-.254-.02.01zM531.598 556.087l.288-.166-.257.144z"/><path clip-path="url(#d)" fill="#C8858F" d="M527.558 534.135l1.15-.66-.13.11-.78.45zM539.808 551.324l1.25-.72-1.27.74z"/><path clip-path="url(#d)" fill="#A7BAC9" d="M539.762 551.37l.022-.022-.49.284zM527.512 534.155l-.336.192-.062.037.442-.253-.022.01zM539.007 551.798l.286-.166-.257.143z"/><path clip-path="url(#d)" fill="#CF3A52" d="M241.292 565.26l49.844-28.705 49.72 28.706-49.775 28.734z"/><path clip-path="url(#d)" fill="#F6678A" d="M291.137 536.556l-49.845 28.706 49.79 28.732 49.774-28.732z"/><path clip-path="url(#d)" fill="#CF3A52" d="M241.292 565.26v7.186l49.816 28.762 49.748-28.762v-7.185l-49.775 28.734z"/><path clip-path="url(#d)" fill="#FFF" d="M304.938 558.024l-3.663 7.463 8.682 6.947-13.552-.83-7.228 6.216-4.713-7.976-13.15-3.106 10.64-4.1-.898-8.133 11.288 5.442z"/><path clip-path="url(#d)" fill="#E3516E" d="M241.292 565.26v7.186l49.816 28.762-.027-7.214z"/><path clip-path="url(#d)" fill="#446CA9" d="M36.237 481.16l49.845-28.707 49.72 28.706-49.776 28.732z"/><g opacity=".5" clip-path="url(#d)"><defs><path id="o" d="M36.237 452.454h99.565v57.438H36.237z"/></defs><clipPath id="p"><use xlink:href="#o" overflow="visible"/></clipPath><path clip-path="url(#p)" fill="#446CA9" d="M86.082 452.453L36.237 481.16l49.79 28.733L135.8 481.16z"/></g><path clip-path="url(#d)" fill="#1E428A" d="M36.237 481.16v7.184l49.817 28.762 49.748-28.762v-7.185L86.026 509.89z"/><path clip-path="url(#d)" fill="#FFF" d="M84.013 469.102l20.89 12.062c1.335.77 1.335 2.694 0 3.465l-14.668 8.468a2.007 2.007 0 0 1-2 0l-11.174-6.44-9.735-5.608c-1.334-.77-1.335-2.695 0-3.465l14.688-8.48c.62-.36 1.38-.36 2-.003"/><path clip-path="url(#d)" fill="#FFF" d="M76.79 493.674l6.217-3.59-5.946-3.427z"/><g opacity=".25" clip-path="url(#d)"><defs><path id="q" d="M36.237 481.16h49.817v35.946H36.237z"/></defs><clipPath id="r"><use xlink:href="#q" overflow="visible"/></clipPath><path clip-path="url(#r)" fill="#959BC4" d="M36.237 481.16v7.184l49.817 28.762-.028-7.214z"/></g><path clip-path="url(#d)" fill="#E7E9EA" d="M272.403 439.475l-6.227 3.593 87.125 50.297-87.12-50.297 6.225-3.592z"/><path clip-path="url(#d)" fill="#AFB6BB" d="M272.405 439.476l-6.225 3.592 87.122 50.297-.003-7.187zM266.177 435.88v7.188l6.227-3.593z"/><path clip-path="url(#d)" fill="#543E36" d="M281.383 269.436l6.17-3.633 6.25 3.633-18.4 82.83-6.202 3.615 18.433-82.812z"/><path clip-path="url(#d)" fill="#72594B" d="M278.687 289.367v7.185l37.346 21.558-.033-7.204z"/><path clip-path="url(#d)" fill="#543E36" d="M278.687 289.367l6.158-3.554 37.407 21.517v7.186l-6.22 3.594-.032-7.204z"/><path clip-path="url(#d)" fill="#FFFFFE" d="M289.583 288.532l-.005.003 32.574 18.738z"/><path clip-path="url(#d)" fill="#D2CFCB" d="M289.583 288.532l-.005.003 32.574 18.738z"/><path clip-path="url(#d)" fill="#B19380" d="M283.403 292.09l-.004.002 32.6 18.815z"/><path clip-path="url(#d)" fill="#A08171" d="M289.578 288.535l-6.175 3.555L316 310.907l.034 7.203 4.253-2.458 1.865-8.38z"/><path clip-path="url(#d)" fill="#72594B" d="M273.02 314.722v7.184l37.347 21.56-.034-7.205z"/><path clip-path="url(#d)" fill="#543E36" d="M273.02 314.722l6.16-3.555 37.405 21.518v7.185l-6.218 3.595-.034-7.204z"/><path clip-path="url(#d)" fill="#FFFFFE" d="M283.928 313.892v.005l32.578 18.742z"/><path clip-path="url(#d)" fill="#FFF" d="M283.928 313.892v.005l32.578 18.742z"/><path clip-path="url(#d)" fill="#A08171" d="M283.922 313.888h.007v.01h-.008z"/><path clip-path="url(#d)" fill="#A08171" d="M283.917 313.893l-6.155 3.538 32.57 18.83.035 7.205 4.28-2.475 1.86-8.35-32.58-18.743z"/><path clip-path="url(#d)" fill="#543E36" d="M318.71 291.026l6.17-3.632 6.25 3.633-18.4 82.83-6.202 3.614 18.432-82.81z"/><path clip-path="url(#d)" fill="#72594B" d="M262.972 352.26l6.23 3.62 18.43-82.812-6.25-3.632z"/><path clip-path="url(#d)" fill="#A08171" d="M281.65 269.283l-.26.152.26.15zM324.88 287.394l-5.278 3.107-.893.526 6.25 3.633 6.17-3.633z"/><path clip-path="url(#d)" fill="#543E36" d="M270.088 320.19l6.17-3.633 6.25 3.634-32.516 146.445-6.202 3.614 32.548-146.428z"/><path clip-path="url(#d)" fill="#72594B" d="M267.392 340.12v7.188l37.346 21.556-.033-7.204zM260.792 393.76l-3.063 5.428 37.345 21.558-.033-7.204zM255.125 419.26l-3.615 5.13 37.345 21.556-.032-7.204zM266.467 368.19l-1.384 6.405 33.99 19.624-.035-7.205zM249.458 444.678l-4.186 4.797 37.346 21.556-.034-7.202z"/><path clip-path="url(#d)" fill="#543E36" d="M249.458 444.678l6.125-3.583 33.254 19.158v7.185l-6.22 3.593-.033-7.202zM267.392 340.12l6.158-3.554 37.407 21.52v7.185l-6.22 3.594-.032-7.204zM266.467 368.19l6.158-3.553 32.666 18.802v7.184l-6.218 3.595-.034-7.205zM260.792 393.76l6.187-3.562 34.314 19.768v7.186l-6.22 3.594-.032-7.204zM255.125 419.26l6.167-3.54 33.784 19.447v7.185l-6.22 3.594-.033-7.204z"/><path clip-path="url(#d)" fill="#A08171" d="M278.27 339.282l-6.19 3.544 32.625 18.834.033 7.204 6.22-3.594v-7.185zM272.625 364.636l-6.158 3.555 32.572 18.824.032 7.205 6.22-3.596v-7.185l-1.875-1.08zM266.98 390.198l-.018.01-6.17 3.554 34.25 19.78.033 7.204 6.22-3.595v-7.183zM261.292 415.72l-6.167 3.542 33.697 19.48.034 7.204 6.22-3.593v-7.187l-13.85-7.972zM255.583 441.095l-6.125 3.583 33.126 19.15.034 7.204 6.22-3.594v-7.186z"/><path clip-path="url(#d)" fill="#543E36" d="M307.415 341.78l6.17-3.633 6.25 3.633-32.517 146.446-6.2 3.613 32.547-146.427z"/><path clip-path="url(#d)" fill="#72594B" d="M237.56 466.626l6.26 3.622 36.188-162.99-9.92 12.93z"/><path clip-path="url(#d)" fill="#72594B" d="M274.123 315.33v7.186l37.346 21.557-.034-7.204z"/><path clip-path="url(#d)" fill="#72594B" d="M274.887 488.217l6.23 3.622 38.172-171.92-11.876 21.86z"/><path clip-path="url(#d)" fill="#543E36" d="M276.83 340.092l1.44-.81.285-1.2-5.01-1.67-.338 1.525z"/><path clip-path="url(#d)" fill="#72594B" d="M300.3 373.85l6.228 3.62 18.432-82.81-6.25-3.634z"/><path clip-path="url(#d)" fill="#008FBE" d="M279.427 235.69l.997-.6 6.2-3.61 1.24.717 6.266 3.622-6.267 3.557-6.164-3.557-.003.002-.288-.166-1.635.758z"/><path clip-path="url(#d)" fill="#008FBE" d="M293.1 235.223l1.03.596-1.03-.597zm-6.478-3.742l-6.198 3.61-.998.6.348.724 1.634-.758.29.166 6.15 3.546.01-7.166 4.407 2.545.003-.004-4.406-2.546-1.24-.716"/><path clip-path="url(#d)" fill="#00C1DE" d="M300.308 246.568v43.113l-18.673-10.76.062-43.098z"/><path clip-path="url(#d)" fill="#00C1DE" d="M306.47 242.948v43.113l-18.675-10.76.062-43.098z"/><path clip-path="url(#d)" fill="#55565A" d="M300.308 289.68v43.112l-9.61-5.525v-43.114z"/><path clip-path="url(#d)" fill="#55565A" d="M290.7 284.153v43.114l-9.065-5.282v-43.113z"/><path clip-path="url(#d)" fill="#008FBE" d="M306.472 242.952v43.11l-6.16-3.56v-35.93z"/><path clip-path="url(#d)" fill="#008FBE" d="M300.272 282.512l.04.02 6.16 3.53-6.16 3.62z"/><path clip-path="url(#d)" fill="#342E1F" d="M288.99 326.275l3.417 1.988V285.15l-3.417-1.986z"/><path clip-path="url(#d)" fill="#00C1DE" d="M300.308 246.568l11.322 9.207a1.998 1.998 0 0 0 2.264.178l11.237-6.513v4.154L313.89 260.1a2.003 2.003 0 0 1-2.257-.172l-11.318-9.113-.004-4.247"/><path clip-path="url(#d)" fill="#008FBE" d="M294.13 235.82l12.342 7.132-6.16 3.62-12.45-7.195z"/><path clip-path="url(#d)" fill="#008FBE" d="M318.84 245.888l6.29 3.552-11.236 6.513a2 2 0 0 1-2.265-.178l-11.322-9.207 6.164-3.616 5.11 5.353a2 2 0 0 0 2.444.353l4.813-2.77M292.27 234.743l-.005.003 1.86 1.075h.004l-1.03-.597-.83-.48"/><path clip-path="url(#d)" fill="#6FD1E6" d="M292.265 234.747l-4.403 4.63 6.264-3.557z"/><path clip-path="url(#d)" fill="#FFFFFE" d="M292.265 234.747l-4.403 4.63 6.264-3.557z"/><path clip-path="url(#d)" fill="#008FBE" d="M294.13 235.82h-.005l-6.262 3.557 12.45 7.195-.005-.004 6.164-3.616z"/><path clip-path="url(#d)" fill="#008FBE" d="M306.472 242.952l-6.164 3.616 11.32 9.207a1.996 1.996 0 0 0 2.266.178l11.237-6.513-6.29-3.552-4.814 2.77a1.998 1.998 0 0 1-2.444-.353l-5.11-5.353"/><path clip-path="url(#d)" fill="#F0D0B4" d="M322.136 244.06l-3.22 1.805 6.243 3.605 3.268-1.858zM325.162 249.472l3.266-1.86v4.155l-3.266 1.853zM281.642 278.92l-3.194-1.79v-3.217l3.187 1.755z"/><path clip-path="url(#d)" fill="#342E1F" d="M304.874 324.793l6.25-3.564-6.25-3.694z"/><path clip-path="url(#d)" fill="#342E1F" d="M307.876 321.222l-7.568 4.386v7.186l12.41-7.204v-1.576c0-2.488-2.692-4.038-4.842-2.792"/><path clip-path="url(#d)" fill="#342E1F" d="M306.47 286.06v43.176l-6.162 3.556V289.68z"/><path clip-path="url(#d)" fill="#222" d="M305.255 224.172l-9.95-5.69-7.623 4.22a4 4 0 0 0-2.063 3.47l-.09 11.833 10.304 5.98 5.91-3.4a7 7 0 0 0 3.51-6.068v-10.345z"/><path clip-path="url(#d)" fill="#F0D0B4" d="M305.255 226.595l-5.26 3.067a4 4 0 0 0-1.984 3.455v9.636l3.747-2.165a6.997 6.997 0 0 0 3.498-6.06v-7.933z"/><path clip-path="url(#d)" fill="#222" d="M297.244 217.333l9.934 5.73v.174c0 1.38-.732 2.66-1.923 3.358v-2.423l-9.95-5.69 1.94-1.15z"/><path clip-path="url(#d)" fill="#00C1DE" d="M278.45 273.945l3.247 1.82v-39.943l-.24-.14c-1.332-.78-3.008.183-3.008 1.727v36.535z"/><path clip-path="url(#d)" fill="#5CD2D2" d="M5.458 263.844l50-28.75 6.055 3.452-49.68 28.798z"/><path clip-path="url(#d)" fill="#9FE5E5" d="M55.458 235.094l-50 28.75 6.375 3.5 49.68-28.798z"/><path clip-path="url(#d)" fill="#CF3A52" d="M160.956 317.704l18.67-10.78 18.667 10.78-18.668 10.777z"/><path clip-path="url(#d)" fill="#FFF" d="M160.956 317.704l18.67-10.78 18.667 10.78-18.668 10.777z"/><path clip-path="url(#d)" fill="#D3D1D3" d="M179.625 328.48l18.667-10.776v21.556l-18.667 10.778z"/><path clip-path="url(#d)" fill="#E6E7E8" d="M160.956 339.26v-21.556l18.67 10.777v21.558z"/><path clip-path="url(#d)" fill="#77BC1F" d="M434.79 547.483v-21.556l18.668 10.778v21.556z"/><g opacity=".5" clip-path="url(#d)"><defs><path id="s" d="M434.79 525.927h18.668v32.334h-18.67z"/></defs><clipPath id="t"><use xlink:href="#s" overflow="visible"/></clipPath><path clip-path="url(#t)" fill="#BDE087" d="M434.79 525.927v21.555l18.668 10.78v-21.558z"/></g><path clip-path="url(#d)" fill="#A4D55D" d="M434.79 525.927l18.668-10.78 18.67 10.78-18.67 10.777z"/><path clip-path="url(#d)" fill="#BDE087" d="M453.458 515.148l-18.67 10.778 18.67 10.78 18.668-10.78z"/><path clip-path="url(#d)" fill="#00A19B" d="M453.458 536.705l18.668-10.778v21.555l-18.668 10.78z"/><path clip-path="url(#d)" fill="#77BC1F" d="M453.458 536.705l18.668-10.778v21.555l-18.668 10.78z"/><path clip-path="url(#d)" fill="#77BC1F" d="M453.458 536.705l18.668-10.778v21.555l-18.668 10.78z"/><path clip-path="url(#d)" fill="#FD5373" d="M540.475 601.48l49.844-28.706 49.72 28.706-49.776 28.734z"/><path clip-path="url(#d)" fill="#CF0A2C" d="M540.475 601.48v7.186l49.816 28.762 49.75-28.762v-7.186l-49.776 28.734z"/><path clip-path="url(#d)" fill="#F2C06B" d="M123.792 385.76l49.844-28.705 49.72 28.706-49.776 28.734z"/><path clip-path="url(#d)" fill="#F8DAA9" d="M173.637 357.056l-49.845 28.706 49.79 28.732 49.773-28.732z"/><path clip-path="url(#d)" fill="#F2C06B" d="M123.792 385.76v7.187l49.816 28.76 49.748-28.76v-7.186l-49.776 28.734z"/><path clip-path="url(#d)" fill="#FFF" d="M171.808 384.872l-17.363 2.76c.077-.06.164-.125.262-.186l21.876-13.56a4.07 4.07 0 0 1 .3-.164l-3.82 10.372c-.137.376-.634.684-1.255.778"/><path clip-path="url(#d)" fill="#FFF" d="M179.898 374.16l11.396 6.603c1.067.617.967 1.727-.223 2.465l-21.088 13.07c-1.19.736-3.035.834-4.102.217l-11.397-6.604c-.232-.133-.422-.295-.528-.473l17.513-2.666c.92-.14 1.765-.442 2.425-.852.66-.41 1.135-.925 1.338-1.48l3.858-10.58c.3.058.577.166.81.3"/><path clip-path="url(#d)" fill="#C69F59" d="M223.356 385.76l-49.776 28.734.028 7.214 49.748-28.76z"/><path clip-path="url(#d)" fill="#F3F4F4" d="M540.44 605.24v3.426l49.817 28.762v-.02l-49.782-28.742v-3.405z"/><path clip-path="url(#d)" fill="#E4615B" d="M540.475 605.26v3.406l49.782 28.742-.028-7.124-3.19 1.843-.033-.02v.02z"/><path clip-path="url(#d)" fill="#446CA9" d="M537.225 596.18l49.844-28.707 49.72 28.706-49.776 28.732z"/><path clip-path="url(#d)" fill="#768EBE" d="M543.545 592.54l-6.32 3.64 49.788 28.732 49.776-28.733-.06-.034-43.44 25.114z"/><path clip-path="url(#d)" fill="#1E428A" d="M537.225 596.18v7.184l49.816 28.762 49.75-28.762v-7.185l-49.776 28.732z"/><path clip-path="url(#d)" fill="#1CCFC9" d="M543.475 585.313l49.844-28.706 49.72 28.706-49.776 28.733z"/><path clip-path="url(#d)" fill="#8AE1DB" d="M593.32 556.607l-49.845 28.706 49.79 28.734 49.774-28.734z"/><path clip-path="url(#d)" fill="#00A19B" d="M543.475 585.313v7.185l49.816 28.762 49.75-28.76v-7.187l-49.776 28.733z"/><path clip-path="url(#d)" fill="#FFF" d="M611.948 588.587c-.145-1.6-1.365-3.105-3.21-4.25-1.844-1.143-4.313-1.925-6.992-2.074l-2.853-.15-.155-1.715c-.145-1.602-1.365-3.105-3.21-4.25-1.844-1.144-4.312-1.925-6.99-2.075-5.344-.275-9.443 2.1-9.154 5.3l.156 1.73.13 1.456.192 2.116.727 8.053 13.39.7 3.54.18 2.423.127 2.853.15c5.343.292 9.443-2.082 9.152-5.3"/><path clip-path="url(#d)" fill="#00C4BC" d="M543.475 585.313v7.185l49.816 28.762-.026-7.214z"/><path clip-path="url(#d)" fill="#F3F4F4" d="M537.19 596.18v7.184l3.25 1.877v-.02l-3.215-1.856V596.2z"/><path clip-path="url(#d)" fill="#EDEEEE" d="M540.44 605.22v.02l.035.02v-.02z"/><path clip-path="url(#d)" fill="#F18B81" d="M540.475 605.24v.02l46.532 26.866v-.02z"/><path clip-path="url(#d)" fill="#FFF" d="M540.475 605.24v.02l46.532 26.866v-.02z"/><path clip-path="url(#d)" fill="#5E6CA6" d="M537.225 596.2v7.164l3.215 1.857.035.02 46.53 26.866-.026-7.194z"/><path clip-path="url(#d)" fill="#72594B" d="M306.528 377.472l-6.23-3.622 18.412-82.824 6.25 3.633z"/></g></svg>